<svg xmlns="http://www.w3.org/2000/svg" width="450" height="318" viewBox="0 0 450 318">
  <rect x="0" y="0" width="450" height="318" rx="8" ry="8" fill="#0d1117" />
  
  <text x="10" y="16" font-family="'Segoe UI', monospace" font-size="13" fill="#c3c9d4">TypeScript</text>
  <rect x="145" y="8" width="220" height="10" rx="5" ry="5" fill="#161b22" />
  <rect x="145" y="8" width="92" height="10" rx="5" ry="5" fill="#736be4" />
  <text x="375" y="17" font-family="'Segoe UI', monospace" font-size="13" fill="#c3c9d4" text-anchor="start">42.0%</text>
  <text x="10" y="44" font-family="'Segoe UI', monospace" font-size="13" fill="#c3c9d4">Jupyter Notebook</text>
  <rect x="145" y="36" width="220" height="10" rx="5" ry="5" fill="#161b22" />
  <rect x="145" y="36" width="40" height="10" rx="5" ry="5" fill="#736be4" />
  <text x="375" y="45" font-family="'Segoe UI', monospace" font-size="13" fill="#c3c9d4" text-anchor="start">18.2%</text>
  <text x="10" y="72" font-family="'Segoe UI', monospace" font-size="13" fill="#c3c9d4">HTML</text>
  <rect x="145" y="64" width="220" height="10" rx="5" ry="5" fill="#161b22" />
  <rect x="145" y="64" width="22" height="10" rx="5" ry="5" fill="#5349df" />
  <text x="375" y="73" font-family="'Segoe UI', monospace" font-size="13" fill="#c3c9d4" text-anchor="start">10.2%</text>
  <text x="10" y="100" font-family="'Segoe UI', monospace" font-size="13" fill="#c3c9d4">C++</text>
  <rect x="145" y="92" width="220" height="10" rx="5" ry="5" fill="#161b22" />
  <rect x="145" y="92" width="15" height="10" rx="5" ry="5" fill="#4035ce" />
  <text x="375" y="101" font-family="'Segoe UI', monospace" font-size="13" fill="#c3c9d4" text-anchor="start">6.9%</text>
  <text x="10" y="128" font-family="'Segoe UI', monospace" font-size="13" fill="#c3c9d4">Kotlin</text>
  <rect x="145" y="120" width="220" height="10" rx="5" ry="5" fill="#161b22" />
  <rect x="145" y="120" width="12" height="10" rx="5" ry="5" fill="#3c33bb" />
  <text x="375" y="129" font-family="'Segoe UI', monospace" font-size="13" fill="#c3c9d4" text-anchor="start">5.6%</text>
  <text x="10" y="156" font-family="'Segoe UI', monospace" font-size="13" fill="#c3c9d4">C</text>
  <rect x="145" y="148" width="220" height="10" rx="5" ry="5" fill="#161b22" />
  <rect x="145" y="148" width="9" height="10" rx="5" ry="5" fill="#4035ce" />
  <text x="375" y="157" font-family="'Segoe UI', monospace" font-size="13" fill="#c3c9d4" text-anchor="start">4.4%</text>
  <text x="10" y="184" font-family="'Segoe UI', monospace" font-size="13" fill="#c3c9d4">PHP</text>
  <rect x="145" y="176" width="220" height="10" rx="5" ry="5" fill="#161b22" />
  <rect x="145" y="176" width="9" height="10" rx="5" ry="5" fill="#4035ce" />
  <text x="375" y="185" font-family="'Segoe UI', monospace" font-size="13" fill="#c3c9d4" text-anchor="start">4.1%</text>
  <text x="10" y="212" font-family="'Segoe UI', monospace" font-size="13" fill="#c3c9d4">PLpgSQL</text>
  <rect x="145" y="204" width="220" height="10" rx="5" ry="5" fill="#161b22" />
  <rect x="145" y="204" width="6" height="10" rx="5" ry="5" fill="#736be4" />
  <text x="375" y="213" font-family="'Segoe UI', monospace" font-size="13" fill="#c3c9d4" text-anchor="start">3.0%</text>
  <text x="10" y="240" font-family="'Segoe UI', monospace" font-size="13" fill="#c3c9d4">JavaScript</text>
  <rect x="145" y="232" width="220" height="10" rx="5" ry="5" fill="#161b22" />
  <rect x="145" y="232" width="5" height="10" rx="5" ry="5" fill="#736be4" />
  <text x="375" y="241" font-family="'Segoe UI', monospace" font-size="13" fill="#c3c9d4" text-anchor="start">2.5%</text>
  <text x="10" y="268" font-family="'Segoe UI', monospace" font-size="13" fill="#c3c9d4">EJS</text>
  <rect x="145" y="260" width="220" height="10" rx="5" ry="5" fill="#161b22" />
  <rect x="145" y="260" width="4" height="10" rx="5" ry="5" fill="#736be4" />
  <text x="375" y="269" font-family="'Segoe UI', monospace" font-size="13" fill="#c3c9d4" text-anchor="start">1.9%</text>
  <text x="10" y="296" font-family="'Segoe UI', monospace" font-size="13" fill="#c3c9d4">CSS</text>
  <rect x="145" y="288" width="220" height="10" rx="5" ry="5" fill="#161b22" />
  <rect x="145" y="288" width="2" height="10" rx="5" ry="5" fill="#5349df" />
  <text x="375" y="297" font-family="'Segoe UI', monospace" font-size="13" fill="#c3c9d4" text-anchor="start">1.3%</text>
</svg>